<?xml version="1.0" encoding="utf-8"?>
<!-- Generator: Adobe Illustrator 25.2.3, SVG Export Plug-In . SVG Version: 6.00 Build 0)  -->
<svg version="1.1"
	 id="svg2" xmlns:cc="http://creativecommons.org/ns#" xmlns:dc="http://purl.org/dc/elements/1.1/" xmlns:inkscape="http://www.inkscape.org/namespaces/inkscape" xmlns:rdf="http://www.w3.org/1999/02/22-rdf-syntax-ns#" xmlns:sodipodi="http://sodipodi.sourceforge.net/DTD/sodipodi-0.dtd" xmlns:svg="http://www.w3.org/2000/svg"
	 xmlns="http://www.w3.org/2000/svg" xmlns:xlink="http://www.w3.org/1999/xlink" x="0px" y="0px" viewBox="0 0 444.6 485.6"
	 style="enable-background:new 0 0 444.6 485.6;" xml:space="preserve">
<style type="text/css">
	.st0{fill:#FDC919;}
</style>
<sodipodi:namedview  bordercolor="#666666" borderopacity="1" gridtolerance="10" guidetolerance="10" id="namedview4" inkscape:current-layer="svg2" inkscape:cx="-273.31745" inkscape:cy="321.853" inkscape:pageopacity="0" inkscape:pageshadow="2" inkscape:snap-bbox="true" inkscape:snap-bbox-midpoints="true" inkscape:window-height="1017" inkscape:window-maximized="1" inkscape:window-width="1920" inkscape:window-x="-8" inkscape:window-y="-8" inkscape:zoom="0.30396576" objecttolerance="10" pagecolor="#ffffff" showgrid="false">
	</sodipodi:namedview>
<g>
	<g id="g869" transform="translate(-1350.643,-1585.5909)">
		<g>
			<g>
				<path class="st0" d="M1486.6,1810.6c0-1.8,0.1-3.6,0.2-5.3l-120.7-88.7v33.6l119.8,88.2
					C1485.8,1832.5,1486.5,1824,1486.6,1810.6z"/>
				<path class="st0" d="M1657.9,1840l121.9-89.8v-34.1l-121.9,89.8c0.1,1.5,0.1,3.1,0.1,4.7C1658,1824.7,1658.4,1833.6,1657.9,1840
					z"/>
			</g>
		</g>
		<g>
			<g>
				<path class="st0" d="M1572.6,1879.9c-27,0-49-21.9-49-49c0-17.4,9.1-32.7,22.8-41.4c-8,7.2-13,17.6-13,29.2
					c0,21.6,17.5,39.2,39.2,39.2c21.6,0,39.2-17.5,39.2-39.2c0-11.6-5-22-13-29.2c13.7,8.7,22.8,24,22.8,41.4
					C1621.6,1858,1599.7,1879.9,1572.6,1879.9z"/>
				<polygon class="st0" points="1558.3,1745.2 1563.8,1762.1 1549.4,1772.6 1567.1,1772.6 1572.6,1789.5 1578.1,1772.6 
					1595.9,1772.6 1581.5,1762.1 1587,1745.2 1572.6,1755.7 				"/>
			</g>
		</g>
	</g>
	<rect id="rect844" x="137.3" y="321.1" class="st0" width="169.9" height="34"/>
</g>
</svg>
