<?xml version="1.0" encoding="utf-8"?>
<!-- Generator: Adobe Illustrator 26.0.1, SVG Export Plug-In . SVG Version: 6.00 Build 0)  -->
<svg version="1.1" id="Layer_1" xmlns="http://www.w3.org/2000/svg" xmlns:xlink="http://www.w3.org/1999/xlink" x="0px" y="0px"
	 viewBox="0 0 154 155.5" style="enable-background:new 0 0 154 155.5;" xml:space="preserve">
<style type="text/css">
	.st0{fill:#F9C917;}
</style>
<path id="path2182-8_1_" class="st0" d="M150.99,80.62V68.41l-74.03,54.56L2.89,68.59v12.03l74.07,54.56L150.99,80.62z"/>
<path id="path2182-8-0_1_" class="st0" d="M150.99,64.37V52.16l-74.03,54.59L2.89,52.34v12.03l74.07,54.56L150.99,64.37z"/>
<g>
	<g>
		<path class="st0" d="M46.03,69.77c0-0.64,0.04-1.29,0.07-1.9L2.89,36.12v12.03l42.89,31.57C45.74,77.58,45.99,74.54,46.03,69.77z"
			/>
		<path class="st0" d="M107.35,80.3l43.64-32.15V35.94l-43.64,32.15c0.04,0.54,0.04,1.11,0.04,1.68
			C107.39,74.79,107.53,78.01,107.35,80.3z"/>
		<path class="st0" d="M2.89,19.87V31.9L46.6,64.08c0.64-3.4,1.86-6.62,3.51-9.56L2.89,19.87z"/>
		<path class="st0" d="M150.99,31.9V19.69L103.45,54.7c1.68,2.94,2.86,6.19,3.47,9.63L150.99,31.9z"/>
		<path class="st0" d="M58.92,44.79L2.89,3.62v12.03L51.9,51.73C53.83,49.08,56.23,46.72,58.92,44.79z"/>
		<path class="st0" d="M101.7,51.98l49.3-36.3V3.47L94.72,44.93C97.4,46.9,99.76,49.26,101.7,51.98z"/>
	</g>
</g>
<rect id="rect844_1_" x="9.82" y="139.47" class="st0" width="134.25" height="12.17"/>
<g>
	<path class="st0" d="M76.98,41.77c0.64,2.64,1.61,5,2.93,7.07s3.67,4.65,7.06,7.71c3.38,3.07,5.53,5.42,6.43,7.06
		c0.9,1.64,1.36,3.3,1.36,4.98c0,2.35-0.78,4.3-2.35,5.86s-3.47,2.35-5.72,2.35c-1.91,0-3.63-0.59-5.19-1.78
		c-1.55-1.19-2.93-2.91-4.12-5.19c0.02,3.59,0.49,6.44,1.41,8.56s2.38,3.77,4.4,4.98c2.02,1.21,4.7,1.92,8.04,2.14l0.26,1.36H62.43
		l0.29-1.36c4.5,0,7.98-1.31,10.46-3.94c2.48-2.63,3.67-6.54,3.57-11.75c-1.1,2.32-2.46,4.06-4.09,5.22
		c-1.62,1.16-3.46,1.74-5.52,1.74c-2.2,0-4.09-0.79-5.66-2.38c-1.58-1.59-2.36-3.49-2.36-5.72c0-1.78,0.4-3.4,1.21-4.84
		c1.1-2,2.88-4.02,5.35-6.05c2.47-2.03,4.29-3.7,5.46-5.02c1.78-2.03,3.08-3.84,3.9-5.42C75.87,45.79,76.52,43.92,76.98,41.77z"/>
</g>
</svg>
